<svg width="256" height="256" viewBox="0 0 256 256" shape-rendering="geometricPrecision" version="1.1" xmlns="http://www.w3.org/2000/svg"><desc>Created by https://guilds.gw2w2w.com/</desc><rect x="0" y="0" width="256" height="256" fill="none" stroke="none" /><g >
<g fill="rgb(26,24,27)" stroke="rgb(26,24,27)" stroke-width=".05%" stroke-opacity="50%" opacity="0.7"><path d=" M 128.22 15.36 C 158.43 32.54 188.44 50.12 218.61 67.39 C 220.72 68.64 222.92 69.79 224.79 71.39 C 225.45 72.82 225.30 74.45 225.39 75.98 C 225.33 106.32 225.38 136.66 225.36 167.00 C 225.32 172.61 225.58 178.24 225.09 183.84 C 204.68 195.89 184.00 207.50 163.55 219.50 C 151.69 226.16 140.09 233.27 128.11 239.71 C 96.43 221.47 64.76 203.19 33.10 184.90 C 31.50 184.24 30.63 182.77 30.82 181.04 C 30.79 147.36 30.83 113.68 30.80 80.01 C 30.75 77.09 31.13 74.20 31.30 71.30 C 63.55 52.56 95.89 33.96 128.22 15.36 Z" /></g>
</g><g >
<g fill="rgb(189,186,185)" stroke="rgb(189,186,185)" stroke-width=".05%" stroke-opacity="50%"><path d=" M 135.50 43.08 C 135.62 38.33 136.70 33.00 141.23 30.50 C 140.65 34.43 139.49 39.20 142.75 42.33 C 144.93 43.74 147.62 44.50 148.93 46.96 C 147.64 47.62 146.37 48.31 145.10 49.01 C 146.94 50.62 148.95 49.66 150.66 48.50 C 155.85 45.15 163.08 47.03 167.46 42.12 C 166.88 44.93 164.80 46.92 162.72 48.73 C 158.30 49.35 155.28 53.06 154.97 57.41 C 156.38 58.75 157.68 60.22 155.29 61.35 C 154.67 60.77 153.43 59.60 152.81 59.02 C 151.32 59.72 149.71 60.42 149.32 62.21 C 149.57 63.70 151.51 63.53 152.56 64.15 C 155.08 66.68 159.16 68.37 162.47 66.28 C 163.78 65.32 165.07 65.13 166.10 66.56 C 165.66 67.00 164.76 67.90 164.32 68.35 C 164.26 68.92 164.14 70.06 164.08 70.63 C 167.84 72.98 171.28 75.89 173.96 79.44 C 174.82 83.12 174.55 87.12 172.55 90.40 C 171.15 93.31 168.26 95.70 168.23 99.13 C 168.73 101.13 169.45 103.77 171.88 104.09 C 175.06 104.94 177.05 102.02 179.15 100.25 C 178.30 102.69 177.13 105.38 174.47 106.28 C 170.77 108.05 167.11 104.43 166.47 100.93 C 165.09 97.42 167.60 94.25 169.34 91.44 C 171.37 88.23 172.65 83.87 170.67 80.34 C 169.37 77.64 166.85 75.88 164.40 74.33 C 164.08 75.94 163.77 77.53 163.44 79.13 C 162.33 77.23 161.62 74.46 159.10 73.99 C 155.40 74.09 154.23 78.35 152.28 80.79 C 151.49 78.82 151.69 75.47 149.04 74.90 C 146.41 74.79 143.82 75.34 141.27 75.93 C 139.92 77.56 137.71 80.04 140.33 81.68 C 141.88 83.90 143.85 82.02 145.25 80.72 C 145.28 81.62 145.33 83.40 145.35 84.30 C 148.76 85.27 152.17 84.63 155.15 82.77 C 151.93 88.42 144.94 89.84 138.98 90.09 C 137.39 89.74 134.81 90.50 134.00 88.72 C 135.37 87.46 137.11 86.49 138.00 84.78 C 138.13 83.56 136.85 82.96 136.24 82.09 C 131.07 84.56 125.42 85.79 120.26 88.25 C 117.89 89.17 116.93 92.54 118.63 94.47 C 119.77 95.60 121.86 96.50 123.21 95.19 C 124.49 94.08 125.34 92.59 126.41 91.29 C 125.66 93.73 125.34 98.00 121.95 98.00 C 117.58 98.62 113.63 93.53 115.67 89.48 C 116.44 87.05 118.86 85.91 120.79 84.53 C 124.48 83.07 128.33 82.10 132.10 80.87 C 131.35 77.76 129.52 75.40 126.45 74.33 C 126.93 73.74 127.88 72.57 128.36 71.99 C 127.82 71.53 126.73 70.60 126.19 70.14 C 123.55 74.36 120.87 79.14 115.92 80.97 C 117.73 77.22 120.44 73.89 121.48 69.79 C 116.93 71.45 113.93 75.35 111.77 79.51 C 109.42 76.83 111.33 73.42 111.94 70.45 C 108.94 71.86 106.89 74.62 105.96 77.76 C 104.33 73.54 107.61 69.98 110.40 67.24 C 113.14 65.11 117.29 65.39 119.55 62.54 C 120.85 61.23 119.14 60.30 118.14 59.71 C 115.39 62.25 112.65 64.90 109.08 66.25 C 106.41 67.17 105.36 70.00 103.60 71.94 C 102.83 68.95 102.85 65.59 100.18 63.46 C 101.33 67.49 102.44 71.63 101.70 75.85 C 101.13 78.51 101.20 81.22 102.00 83.83 C 97.83 83.32 97.33 78.50 95.32 75.62 C 94.27 77.54 93.22 79.46 92.02 81.29 C 91.76 78.84 91.73 73.89 87.93 75.41 C 89.87 79.67 90.52 84.34 90.93 88.97 C 90.98 91.83 93.21 93.91 94.39 96.35 C 91.53 95.99 89.32 94.10 86.83 92.85 C 86.65 97.79 90.29 101.47 92.15 105.73 C 90.93 108.07 89.89 110.49 88.81 112.89 C 89.37 113.18 90.51 113.76 91.08 114.05 C 92.77 112.10 93.95 109.77 95.35 107.60 C 97.46 108.68 100.26 108.96 101.68 111.02 C 101.41 113.27 100.89 115.48 100.48 117.70 C 101.02 117.93 102.11 118.39 102.65 118.62 C 104.35 116.53 104.09 113.52 105.05 111.07 C 107.80 110.81 110.58 110.92 113.25 111.66 C 113.32 114.61 112.03 118.32 114.89 120.39 C 115.57 117.49 116.05 114.55 116.85 111.68 C 119.80 111.53 122.76 111.52 125.70 111.80 C 125.96 115.00 123.72 118.72 126.37 121.39 C 128.17 118.83 127.14 114.84 129.52 112.81 C 132.05 113.10 134.47 113.94 136.94 114.55 C 137.48 117.57 136.20 120.50 136.27 123.51 C 136.76 123.78 137.75 124.30 138.25 124.57 C 140.07 122.50 140.75 119.70 142.61 117.65 C 146.13 119.62 149.65 121.63 152.76 124.25 C 151.26 126.81 149.27 129.11 148.34 131.97 C 148.94 132.32 150.14 133.01 150.74 133.36 C 152.80 131.65 154.80 129.86 156.98 128.30 C 159.21 130.87 161.01 133.76 162.80 136.65 C 160.44 138.78 158.11 140.95 155.86 143.21 C 156.25 143.68 157.02 144.63 157.41 145.10 C 159.65 143.71 161.89 142.31 164.14 140.93 C 166.57 144.07 168.21 147.71 169.30 151.52 C 166.91 153.15 162.50 153.70 162.72 157.38 C 165.29 158.08 169.88 156.75 170.69 160.13 C 170.90 163.84 170.64 167.65 169.67 171.26 C 166.20 170.19 162.56 170.04 158.96 169.92 C 162.31 172.69 166.12 174.97 168.89 178.39 C 167.41 180.35 163.34 184.63 167.88 185.46 C 169.78 183.97 170.46 180.88 173.10 180.46 C 175.33 180.14 176.70 182.10 177.92 183.62 C 174.34 183.48 170.08 184.36 168.28 187.79 C 169.22 191.15 173.34 190.68 175.97 191.80 C 173.08 193.26 170.32 192.17 167.68 190.74 C 166.74 191.74 165.81 192.75 164.88 193.76 C 165.88 196.63 168.24 199.03 168.03 202.25 C 168.72 203.11 169.42 203.98 170.11 204.86 C 168.29 205.11 166.11 204.73 165.69 202.61 C 165.04 199.26 162.12 197.15 161.08 193.99 C 160.27 191.57 158.61 189.61 157.11 187.59 C 159.20 187.92 161.30 188.21 163.41 188.48 C 161.93 185.99 160.00 183.33 156.98 182.73 C 154.87 182.00 152.87 183.31 150.94 183.96 C 150.93 185.34 150.93 186.71 150.93 188.09 C 152.00 188.36 153.07 188.64 154.14 188.91 C 156.28 191.99 157.49 195.55 157.60 199.31 C 151.85 195.26 144.00 194.89 137.68 197.75 C 139.79 201.25 140.94 205.27 140.43 209.38 C 135.46 208.81 131.37 204.24 126.27 205.28 C 126.00 205.53 125.44 206.01 125.17 206.25 C 124.20 210.07 123.10 213.84 121.49 217.45 C 115.81 214.53 110.77 209.22 103.79 210.06 C 103.81 213.94 106.86 216.69 108.12 220.16 C 100.96 218.57 94.18 215.66 87.62 212.42 C 75.55 207.84 66.74 197.80 58.91 187.94 C 56.01 183.47 52.16 179.33 51.02 173.98 C 50.48 169.77 50.62 165.43 51.56 161.28 C 52.85 164.19 52.45 167.53 53.69 170.46 C 54.83 173.93 56.99 176.96 59.79 179.29 C 61.10 177.05 62.08 174.64 63.39 172.40 C 64.51 177.68 64.60 183.50 68.18 187.88 C 69.37 189.33 71.06 192.10 73.18 191.30 C 74.20 188.86 75.47 186.54 77.46 184.75 C 77.94 188.76 78.06 193.04 80.57 196.43 C 84.09 202.59 91.51 205.33 98.33 204.91 C 96.75 202.57 95.36 200.08 94.63 197.33 C 99.94 201.76 106.95 204.50 113.92 203.30 C 117.01 202.57 120.11 201.58 122.81 199.88 C 124.18 199.15 124.71 197.50 124.59 196.04 C 123.51 192.44 120.25 190.23 118.41 187.08 C 120.24 187.74 121.91 189.02 123.91 189.12 C 129.26 189.21 134.67 189.07 139.90 187.82 C 140.20 187.42 140.79 186.62 141.09 186.22 C 138.61 184.20 135.97 182.07 135.30 178.75 C 140.11 180.00 145.81 179.11 149.03 175.04 C 154.09 168.79 154.79 160.11 153.31 152.47 C 151.18 143.18 145.63 134.52 137.55 129.32 C 134.38 127.25 130.90 124.63 126.91 125.11 C 123.81 126.33 121.80 129.31 120.18 132.08 C 118.90 134.25 121.15 138.19 123.75 136.89 C 125.16 134.43 125.22 131.31 127.10 129.11 C 129.72 125.78 136.39 128.87 135.55 132.78 L 135.13 132.59 C 133.54 131.91 131.93 130.70 130.11 131.13 C 127.36 132.15 125.99 135.24 125.92 138.00 C 127.48 139.02 129.44 138.66 131.20 138.86 C 132.55 140.29 133.79 141.81 135.00 143.36 C 132.07 142.20 129.03 141.28 125.87 141.09 C 128.17 143.86 131.26 146.33 131.96 150.05 C 132.44 151.98 131.35 153.79 130.81 155.56 C 129.56 151.36 127.55 147.35 123.60 145.11 C 123.12 146.72 123.23 148.68 121.90 149.90 C 120.85 151.23 119.08 150.71 117.63 150.83 C 119.48 148.58 122.91 144.17 118.73 142.39 C 115.41 139.33 112.29 143.53 109.30 144.88 C 109.20 144.89 108.98 144.91 108.87 144.92 C 105.84 145.00 102.23 145.11 100.38 142.19 C 102.86 142.01 105.35 141.92 107.84 141.88 C 108.16 141.54 108.79 140.87 109.11 140.54 C 108.11 140.23 106.12 139.61 105.12 139.30 C 107.23 138.38 109.46 137.70 111.51 136.62 C 115.76 133.65 118.63 129.22 121.28 124.86 C 118.09 123.20 114.43 124.60 111.03 124.48 C 101.00 125.26 90.19 124.27 81.87 118.07 C 81.83 120.37 82.02 122.67 82.25 124.96 C 74.35 118.77 70.29 108.40 70.94 98.50 C 69.85 99.90 68.85 101.37 67.86 102.84 C 64.20 92.79 70.89 83.44 75.48 75.02 C 69.36 74.92 63.91 78.20 57.86 78.62 C 61.14 74.93 64.81 71.47 69.23 69.18 C 71.35 68.10 73.33 66.75 75.17 65.23 C 71.14 64.27 67.22 65.98 63.22 66.12 C 69.84 60.20 78.55 57.02 87.40 56.85 C 87.40 51.69 81.36 52.01 77.83 50.76 C 80.48 48.67 83.84 48.68 86.95 49.62 C 90.38 50.38 93.90 50.52 97.40 50.34 C 96.87 48.04 95.64 46.02 94.47 44.00 C 98.65 44.15 101.67 48.42 105.90 47.63 C 106.15 45.03 103.50 43.44 102.42 41.34 C 108.19 40.62 112.37 44.98 117.50 46.49 C 117.59 43.72 115.74 41.63 114.37 39.43 C 119.88 39.20 124.47 42.70 129.51 44.34 C 129.10 43.15 128.70 41.95 128.31 40.75 C 130.81 41.18 133.20 42.01 135.50 43.08 M 134.32 62.10 C 137.72 63.27 141.28 64.21 144.91 63.67 C 144.71 62.47 144.49 61.28 144.24 60.09 C 140.80 59.69 137.37 59.05 133.91 58.87 C 131.46 59.50 133.47 60.95 134.32 62.10 M 131.66 70.46 C 132.36 73.13 134.30 75.08 136.36 76.79 C 138.49 75.56 140.34 73.92 142.17 72.28 C 140.81 71.24 139.45 70.20 138.09 69.16 C 135.96 69.65 133.81 70.06 131.66 70.46 Z" /></g>
<g fill="rgb(135,0,10)" stroke="rgb(135,0,10)" stroke-width=".05%" stroke-opacity="50%"><path d=" M 163.03 50.75 C 176.91 56.83 189.96 65.59 199.29 77.68 C 212.69 93.86 219.45 115.09 218.93 136.01 C 218.35 154.30 212.36 172.52 201.22 187.12 C 190.01 202.30 173.72 213.55 155.67 218.96 C 157.89 217.10 160.06 215.05 162.81 213.99 C 180.60 206.95 195.70 193.57 205.24 177.03 C 214.61 160.47 218.73 140.87 215.99 121.99 C 212.26 91.36 190.52 63.94 161.79 52.86 C 162.10 52.33 162.72 51.28 163.03 50.75 Z" />
<path d=" M 57.13 82.22 C 61.79 80.98 66.22 79.04 70.79 77.54 C 69.59 80.33 67.79 82.82 66.68 85.66 C 64.38 92.84 63.98 100.60 65.75 107.95 C 66.75 106.49 67.73 105.01 68.72 103.55 C 69.57 113.42 74.47 123.25 83.18 128.41 C 83.80 126.04 83.79 123.58 83.80 121.15 C 89.28 125.30 96.32 126.67 103.03 127.11 C 107.89 127.63 112.58 125.91 117.41 125.99 C 114.99 132.06 108.23 133.89 103.43 137.56 C 103.45 138.25 103.47 139.63 103.48 140.32 C 100.76 140.55 98.07 140.06 95.54 139.04 C 96.82 142.35 99.03 145.99 103.01 146.16 C 104.92 146.08 107.73 146.91 108.87 144.92 C 108.98 144.91 109.20 144.89 109.30 144.88 C 111.49 144.74 113.67 144.52 115.85 144.23 C 116.40 144.49 117.50 145.02 118.05 145.28 C 117.24 148.23 116.30 151.14 115.24 154.01 C 119.39 153.76 122.71 151.29 125.78 148.73 C 128.27 152.11 130.02 155.94 131.02 160.02 C 133.03 155.41 134.07 150.39 133.03 145.39 C 134.77 147.03 136.49 148.68 138.24 150.31 C 137.80 146.93 137.57 143.31 135.60 140.40 C 134.05 138.32 132.01 136.70 130.14 134.93 C 131.80 134.14 133.46 133.35 135.13 132.59 L 135.55 132.78 C 144.07 137.51 148.90 146.68 150.77 155.96 C 151.51 161.78 151.60 168.72 147.16 173.18 C 143.41 177.02 137.63 177.10 132.70 176.15 C 132.90 179.82 134.59 183.11 136.37 186.25 C 132.31 186.86 128.16 187.43 124.07 186.85 C 121.36 186.54 119.53 184.38 117.40 182.93 C 116.52 187.22 119.22 190.99 120.18 195.00 C 120.79 197.78 118.77 200.51 116.03 201.00 C 108.22 203.06 100.28 198.62 94.68 193.46 C 92.88 195.83 92.70 198.70 93.22 201.55 C 89.33 199.85 84.90 198.18 82.81 194.19 C 80.04 189.85 79.81 184.60 79.58 179.62 C 75.40 181.31 73.60 185.58 71.25 189.08 C 66.98 183.14 66.66 175.65 65.82 168.66 C 63.00 170.70 60.93 173.52 59.20 176.50 C 55.05 170.47 53.87 162.87 54.05 155.68 C 50.04 159.11 48.84 164.27 48.29 169.29 C 42.55 159.20 40.54 147.46 40.09 135.99 C 40.47 117.05 44.42 96.95 57.13 82.22 Z" />
<path d=" M 142.30 199.46 C 147.24 198.36 152.32 199.33 156.83 201.48 C 158.14 200.46 159.45 199.44 160.79 198.45 C 161.93 202.85 162.55 207.85 159.86 211.84 C 156.09 217.43 149.03 218.99 142.89 220.48 C 132.50 221.73 121.70 223.14 111.45 220.28 C 109.66 218.95 108.58 216.85 107.65 214.87 C 107.88 212.39 110.33 213.34 111.71 214.21 C 114.97 216.19 117.86 218.73 121.11 220.74 C 125.88 218.19 126.71 212.56 127.86 207.81 C 131.81 209.17 135.72 210.97 139.96 211.10 C 141.36 211.08 143.21 211.42 143.79 209.75 C 144.41 206.25 143.02 202.83 142.30 199.46 Z" /></g>


</g></svg>